{"title":"Future.Justice.2014.AR-SUB.HDRip.XviD.AC3-N33B","uid":12153618,"size":1037660986,"categoryP":"video","categoryS":"movies","magnet":"?xt=urn:btih:81f0c53530028571e9d7d4a95b1b233f7b04c9ac&amp;dn=Future.Justice.2014.AR-SUB.HDRip.XviD.AC3-N33B&amp;tr=udp%3A%2F%2Ftracker.openbittorrent.com%3A80&amp;tr=udp%3A%2F%2Fopen.demonii.com%3A1337&amp;tr=udp%3A%2F%2Ftracker.coppersurfer.tk%3A6969&amp;tr=udp%3A%2F%2Fexodus.desync.com%3A6969","seeders":0,"leechers":0,"uploader":"TvTeam","files":4,"time":1437704719,"description":"------------------------------------------------------------------------\n\n &lt;a href=&quot; https://www.torrenting.com&quot; rel=&quot;nofollow&quot; target=&quot;_NEW&quot;&gt; https://www.torrenting.com&lt;/a&gt;\n\nSign up is OPEN - for time being. Come and have fun\n\nFuture.Justice.2014.AR-SUB.HDRip.XviD.AC3-N33B &lt;a href=&quot;\nhttp://www.imdb.com/title/tt3312230/&quot; rel=&quot;nofollow&quot; target=&quot;_NEW&quot;&gt;\nhttp://www.imdb.com/title/tt3312230/&lt;/a&gt;\n\nSource was 720p-AL \n \nGeneral\nComplete name                            : Future.Justice.2014.AR-SUB.HDRip.XviD.AC3-N33B.avi\nFormat                                   : AVI\nFormat/Info                              : Audio Video Interleave\nFile size                                : 955 MiB\nDuration                                 : 1h 22mn\nOverall bit rate                         : 1 612 Kbps\n\nVideo\nID                                       : 0\nFormat                                   : MPEG-4 Visual\nFormat profile                           : Advanced Simple@L5\nFormat settings, BVOP                    : 2\nFormat settings, QPel                    : No\nFormat settings, GMC                     : No warppoints\nFormat settings, Matrix                  : Default (H.263)\nMuxing mode                              : Packed bitstream\nCodec ID                                 : XVID\nCodec ID/Hint                            : XviD\nDuration                                 : 1h 22mn\nBit rate                                 : 1 348 Kbps\nWidth                                    : 720 pixels\nHeight                                   : 320 pixels\nDisplay aspect ratio                     : 2.25:1\nFrame rate                               : 25.000 fps\nColor space                              : YUV\nChroma subsampling                       : 4:2:0\nBit depth                                : 8 bits\nScan type                                : Progressive\nCompression mode                         : Lossy\nBits/(Pixel*Frame)                       : 0.234\nStream size                              : 799 MiB (84%)\nWriting library                          : XviD 64\n\nAudio\nID                                       : 1\nFormat                                   : AC-3\nFormat/Info                              : Audio Coding 3\nMode extension                           : CM (complete main)\nFormat settings, Endianness              : Big\nCodec ID                                 : 2000\nDuration                                 : 1h 22mn\nBit rate mode                            : Constant\nBit rate                                 : 256 Kbps\nChannel(s)                               : 2 channels\nChannel positions                        : Front: L R\nSampling rate                            : 44.1 KHz\nCompression mode                         : Lossy\nStream size                              : 152 MiB (16%)\nAlignment                                : Aligned on interleaves\nInterleave, duration                     : 70 ms (1.74 video frames)\nInterleave, preload duration             : 209 ms\nTitle","torrent":{"xt":"urn:btih:81f0c53530028571e9d7d4a95b1b233f7b04c9ac","amp;dn":"Future.Justice.2014.AR-SUB.HDRip.XviD.AC3-N33B","amp;tr":["udp%3A%2F%2Ftracker.openbittorrent.com%3A80","udp%3A%2F%2Fopen.demonii.com%3A1337","udp%3A%2F%2Ftracker.coppersurfer.tk%3A6969","udp%3A%2F%2Fexodus.desync.com%3A6969"],"infoHash":"81f0c53530028571e9d7d4a95b1b233f7b04c9ac","infoHashBuffer":{"type":"Buffer","data":[129,240,197,53,48,2,133,113,233,215,212,169,91,27,35,63,123,4,201,172]},"announce":[],"urlList":[]}}